<svg xmlns="http://www.w3.org/2000/svg" version="1.1" xmlns:xlink="http://www.w3.org/1999/xlink" xmlns:svgjs="http://svgjs.dev/svgjs" width="1440" height="560" preserveAspectRatio="none" viewBox="0 0 1440 560"><g clip-path="url(&quot;#SvgjsClipPath1050&quot;)" fill="none"><circle r="93.335" cx="-64.98" cy="-28.38" stroke="#026de3" stroke-opacity="0.25" stroke-width="2"></circle><circle r="93.335" cx="355.37" cy="289.26" stroke="#026de3" stroke-opacity="0.25" stroke-width="2"></circle><circle r="93.335" cx="774.88" cy="670.62" stroke="#026de3" stroke-opacity="0.25" stroke-width="2"></circle><circle r="133.11" cx="1276.04" cy="436.63" stroke="#026de3" stroke-opacity="0.25" stroke-width="2"></circle><circle r="121" cx="1304.7" cy="171.78" stroke="#026de3" stroke-opacity="0.25" stroke-width="2"></circle><circle r="144.845" cx="496.09" cy="350.28" stroke="#026de3" stroke-opacity="0.25" stroke-width="2"></circle><circle r="146.14" cx="175.91" cy="151.18" stroke="#026de3" stroke-opacity="0.25" stroke-width="2"></circle><circle r="178.015" cx="1116.6" cy="520.87" stroke="#026de3" stroke-opacity="0.25" stroke-width="2"></circle><circle r="106.14" cx="693.34" cy="241.31" stroke="#026de3" stroke-opacity="0.25" stroke-width="2"></circle><circle r="72.735" cx="184.06" cy="197.7" stroke="#026de3" stroke-opacity="0.25" stroke-width="2"></circle><circle r="119.89" cx="765.18" cy="113.59" stroke="#026de3" stroke-opacity="0.25" stroke-width="2"></circle><circle r="109.815" cx="717.33" cy="159.14" stroke="#026de3" stroke-opacity="0.25" stroke-width="2"></circle><circle r="165.32" cx="1327.07" cy="325.65" stroke="#026de3" stroke-opacity="0.25" stroke-width="2"></circle><circle r="165.845" cx="1131.56" cy="372.17" stroke="#026de3" stroke-opacity="0.25" stroke-width="2"></circle><circle r="153.575" cx="1188.22" cy="363.2" stroke="#026de3" stroke-opacity="0.25" stroke-width="2"></circle><circle r="126.975" cx="904.5" cy="479.81" stroke="#026de3" stroke-opacity="0.25" stroke-width="2"></circle><circle r="135.435" cx="478.95" cy="172.16" stroke="#026de3" stroke-opacity="0.25" stroke-width="2"></circle><circle r="49.885" cx="719.06" cy="358.91" stroke="#026de3" stroke-opacity="0.25" stroke-width="2"></circle><circle r="175.805" cx="764.67" cy="222.9" stroke="#026de3" stroke-opacity="0.25" stroke-width="2"></circle><circle r="112.28" cx="213.19" cy="499.62" stroke="#026de3" stroke-opacity="0.25" stroke-width="2"></circle><circle r="81.57" cx="345.41" cy="498.51" stroke="#026de3" stroke-opacity="0.25" stroke-width="2"></circle><circle r="121.9" cx="349.52" cy="104.32" stroke="#026de3" stroke-opacity="0.25" stroke-width="2"></circle><circle r="128.53" cx="463.58" cy="153.27" stroke="#026de3" stroke-opacity="0.25" stroke-width="2"></circle><circle r="62.55" cx="1209.81" cy="512.57" stroke="#026de3" stroke-opacity="0.25" stroke-width="2"></circle><circle r="59.805" cx="1232.07" cy="47.62" stroke="#026de3" stroke-opacity="0.25" stroke-width="2"></circle><circle r="137.39" cx="107.96" cy="59.93" stroke="#026de3" stroke-opacity="0.25" stroke-width="2"></circle><circle r="123.89" cx="215.2" cy="209.44" stroke="#026de3" stroke-opacity="0.25" stroke-width="2"></circle><circle r="78.49" cx="102.05" cy="65.25" stroke="#026de3" stroke-opacity="0.25" stroke-width="2"></circle><circle r="118.015" cx="478.47" cy="197.59" stroke="#026de3" stroke-opacity="0.25" stroke-width="2"></circle><circle r="184.765" cx="877.7" cy="189.75" stroke="#026de3" stroke-opacity="0.25" stroke-width="2"></circle><circle r="126.37" cx="186.99" cy="30.04" stroke="#026de3" stroke-opacity="0.25" stroke-width="2"></circle><circle r="107.845" cx="16.16" cy="297.41" stroke="#026de3" stroke-opacity="0.25" stroke-width="2"></circle><circle r="145.57" cx="818.01" cy="296.37" stroke="#026de3" stroke-opacity="0.25" stroke-width="2"></circle><circle r="94.445" cx="494.04" cy="397.79" stroke="#026de3" stroke-opacity="0.25" stroke-width="2"></circle><circle r="105.62" cx="450.06" cy="363.02" stroke="#026de3" stroke-opacity="0.25" stroke-width="2"></circle><circle r="75.01" cx="521.3" cy="41.03" stroke="#026de3" stroke-opacity="0.25" stroke-width="2"></circle><circle r="84.5" cx="1011.44" cy="100.11" stroke="#026de3" stroke-opacity="0.25" stroke-width="2"></circle><circle r="168.775" cx="1010.5" cy="394.26" stroke="#026de3" stroke-opacity="0.25" stroke-width="2"></circle><circle r="49.18" cx="783.14" cy="541.78" stroke="#026de3" stroke-opacity="0.25" stroke-width="2"></circle><circle r="174.61" cx="669.18" cy="374.06" stroke="#026de3" stroke-opacity="0.25" stroke-width="2"></circle></g><defs><clipPath id="SvgjsClipPath1050"><rect width="1440" height="560" x="0" y="0"></rect></clipPath></defs></svg>